<?xml version="1.0" ?>
<mxfile host="app.diagrams.net" modified="2025-05-11T02:25:59.211Z" agent="Mozilla/5.0 (Windows NT 10.0; Win64; x64) draw.io/21.2.1 Chrome/112.0.5615.87 Electron/24.1.2 Safari/537.36" version="21.2.1" type="device">
  <diagram id="network_topology" name="Network Topology">
    <mxGraphModel dx="1000" dy="800" grid="1" gridSize="10" guides="1" tooltips="1" connect="1" arrows="1" fold="1" page="1" pageScale="1" pageWidth="850" pageHeight="1100" math="0" shadow="0">
      <root>
        <mxCell id="0"/>
        <mxCell id="root_1" parent="0"/>
        <mxCell id="node_2" vertex="1" parent="root_1" style="fillColor=#036897;strokeColor=#ffffff;strokeWidth=2;html=1;verticalLabelPosition=bottom;verticalAlign=top;align=center;shape=mxgraph.cisco.routers.router;sketch=0" value="usa1-core-01\n172.16.101.1\nCisco IOS Software, vios_l2 Software (vios_l2-ADVENTERPRISEK9-M), Version 15.2(4.0.55)E, TEST ENGINEERING ESTG_WEEKLY BUILD, synced to  END_OF_FLO_ISP">
          <mxGeometry x="1000" y="350" width="80" height="80" as="geometry"/>
        </mxCell>
        <mxCell id="node_3" vertex="1" parent="root_1" style="fillColor=#036897;strokeColor=#ffffff;strokeWidth=2;html=1;verticalLabelPosition=bottom;verticalAlign=top;align=center;shape=mxgraph.cisco.routers.router;sketch=0" value="usa1-rtr-1\n172.16.128.1\nCisco 7206VXR">
          <mxGeometry x="800" y="500" width="80" height="80" as="geometry"/>
        </mxCell>
        <mxCell id="node_4" vertex="1" parent="root_1" style="fillColor=#036897;strokeColor=#ffffff;strokeWidth=2;html=1;verticalLabelPosition=bottom;verticalAlign=top;align=center;shape=mxgraph.cisco.switches.layer_3_switch;sketch=0" value="usa1-core-02\n172.16.101.2\nCisco">
          <mxGeometry x="1000" y="500" width="80" height="80" as="geometry"/>
        </mxCell>
        <mxCell id="node_5" vertex="1" parent="root_1" style="fillColor=#036897;strokeColor=#ffffff;strokeWidth=2;html=1;verticalLabelPosition=bottom;verticalAlign=top;align=center;shape=mxgraph.cisco.switches.workgroup_switch;sketch=0" value="usa1-access-02\n172.16.101.4\nCisco">
          <mxGeometry x="1200" y="500" width="80" height="80" as="geometry"/>
        </mxCell>
        <mxCell id="node_6" vertex="1" parent="root_1" style="fillColor=#036897;strokeColor=#ffffff;strokeWidth=2;html=1;verticalLabelPosition=bottom;verticalAlign=top;align=center;shape=mxgraph.cisco.routers.router;sketch=0" value="usa2-rtr-1\n172.16.201.100\nCisco 7206VXR">
          <mxGeometry x="800" y="650" width="80" height="80" as="geometry"/>
        </mxCell>
        <mxCell id="node_7" vertex="1" parent="root_1" style="fillColor=#036897;strokeColor=#ffffff;strokeWidth=2;html=1;verticalLabelPosition=bottom;verticalAlign=top;align=center;shape=mxgraph.cisco.switches.workgroup_switch;sketch=0" value="arista-3\n172.16.21.2\nArista Networks EOS version 4.18.4F running on an Arista Networks vEOS">
          <mxGeometry x="1000" y="650" width="80" height="80" as="geometry"/>
        </mxCell>
        <mxCell id="node_8" vertex="1" parent="root_1" style="fillColor=#036897;strokeColor=#ffffff;strokeWidth=2;html=1;verticalLabelPosition=bottom;verticalAlign=top;align=center;shape=mxgraph.cisco.switches.workgroup_switch;sketch=0" value="arista-2\n172.16.21.1\nArista Networks EOS version 4.18.4F running on an Arista Networks vEOS">
          <mxGeometry x="1200" y="650" width="80" height="80" as="geometry"/>
        </mxCell>
        <mxCell id="node_9" vertex="1" parent="root_1" style="fillColor=#036897;strokeColor=#ffffff;strokeWidth=2;html=1;verticalLabelPosition=bottom;verticalAlign=top;align=center;shape=mxgraph.cisco.switches.layer_3_switch;sketch=0" value="usa2-core-01\n172.16.201.1\nCisco">
          <mxGeometry x="1000" y="800" width="80" height="80" as="geometry"/>
        </mxCell>
        <mxCell id="node_10" vertex="1" parent="root_1" style="fillColor=#036897;strokeColor=#ffffff;strokeWidth=2;html=1;verticalLabelPosition=bottom;verticalAlign=top;align=center;shape=mxgraph.cisco.switches.layer_3_switch;sketch=0" value="usa2-core-02\n172.16.201.2\nCisco">
          <mxGeometry x="900" y="950" width="80" height="80" as="geometry"/>
        </mxCell>
        <mxCell id="node_11" vertex="1" parent="root_1" style="fillColor=#036897;strokeColor=#ffffff;strokeWidth=2;html=1;verticalLabelPosition=bottom;verticalAlign=top;align=center;shape=mxgraph.cisco.switches.workgroup_switch;sketch=0" value="usa2-access-02\n172.16.201.4\nCisco">
          <mxGeometry x="1100" y="950" width="80" height="80" as="geometry"/>
        </mxCell>
        <mxCell id="edge_12" parent="root_1" source="node_3" target="node_6" style="edgeStyle=orthogonalEdgeStyle;rounded=0;orthogonalLoop=1;jettySize=auto;html=1;noEdgeStyle=1" edge="1" noEdgeStyle="1" value="Ethernet1/0 -> Ethernet1/0">
          <mxGeometry relative="1" as="geometry"/>
        </mxCell>
        <mxCell id="edge_13" parent="root_1" source="node_3" target="node_6" style="edgeStyle=orthogonalEdgeStyle;rounded=0;orthogonalLoop=1;jettySize=auto;html=1;noEdgeStyle=1" edge="1" noEdgeStyle="1" value="Ethernet1/1 -> Ethernet1/1">
          <mxGeometry relative="1" as="geometry"/>
        </mxCell>
        <mxCell id="edge_14" parent="root_1" source="node_3" target="node_2" style="edgeStyle=orthogonalEdgeStyle;rounded=0;orthogonalLoop=1;jettySize=auto;html=1;noEdgeStyle=1" edge="1" noEdgeStyle="1" value="Ethernet2/0 -> GigabitEthernet0/0">
          <mxGeometry relative="1" as="geometry"/>
        </mxCell>
        <mxCell id="edge_15" parent="root_1" source="node_2" target="node_3" style="edgeStyle=orthogonalEdgeStyle;rounded=0;orthogonalLoop=1;jettySize=auto;html=1;noEdgeStyle=1" edge="1" noEdgeStyle="1" value="Gi0/2 -> Ethernet1">
          <mxGeometry relative="1" as="geometry"/>
        </mxCell>
        <mxCell id="edge_16" parent="root_1" source="node_2" target="node_4" style="edgeStyle=orthogonalEdgeStyle;rounded=0;orthogonalLoop=1;jettySize=auto;html=1;noEdgeStyle=1" edge="1" noEdgeStyle="1" value="GigabitEthernet0/1 -> GigabitEthernet0/1">
          <mxGeometry relative="1" as="geometry"/>
        </mxCell>
        <mxCell id="edge_17" parent="root_1" source="node_2" target="node_5" style="edgeStyle=orthogonalEdgeStyle;rounded=0;orthogonalLoop=1;jettySize=auto;html=1;noEdgeStyle=1" edge="1" noEdgeStyle="1" value="GigabitEthernet0/3 -> GigabitEthernet0/2">
          <mxGeometry relative="1" as="geometry"/>
        </mxCell>
        <mxCell id="edge_18" parent="root_1" source="node_7" target="node_3" style="edgeStyle=orthogonalEdgeStyle;rounded=0;orthogonalLoop=1;jettySize=auto;html=1;noEdgeStyle=1" edge="1" noEdgeStyle="1" value="Ethernet1 -> Ethernet2">
          <mxGeometry relative="1" as="geometry"/>
        </mxCell>
        <mxCell id="edge_19" parent="root_1" source="node_7" target="node_8" style="edgeStyle=orthogonalEdgeStyle;rounded=0;orthogonalLoop=1;jettySize=auto;html=1;noEdgeStyle=1" edge="1" noEdgeStyle="1" value="Ethernet2 -> Ethernet2">
          <mxGeometry relative="1" as="geometry"/>
        </mxCell>
        <mxCell id="edge_20" parent="root_1" source="node_8" target="node_3" style="edgeStyle=orthogonalEdgeStyle;rounded=0;orthogonalLoop=1;jettySize=auto;html=1;noEdgeStyle=1" edge="1" noEdgeStyle="1" value="Ethernet1 -> Ethernet3">
          <mxGeometry relative="1" as="geometry"/>
        </mxCell>
        <mxCell id="edge_21" parent="root_1" source="node_4" target="node_5" style="edgeStyle=orthogonalEdgeStyle;rounded=0;orthogonalLoop=1;jettySize=auto;html=1;noEdgeStyle=1" edge="1" noEdgeStyle="1" value="GigabitEthernet0/2 -> GigabitEthernet0/0">
          <mxGeometry relative="1" as="geometry"/>
        </mxCell>
        <mxCell id="edge_22" parent="root_1" source="node_6" target="node_9" style="edgeStyle=orthogonalEdgeStyle;rounded=0;orthogonalLoop=1;jettySize=auto;html=1;noEdgeStyle=1" edge="1" noEdgeStyle="1" value="Ethernet1/2 -> GigabitEthernet0/0">
          <mxGeometry relative="1" as="geometry"/>
        </mxCell>
        <mxCell id="edge_23" parent="root_1" source="node_9" target="node_10" style="edgeStyle=orthogonalEdgeStyle;rounded=0;orthogonalLoop=1;jettySize=auto;html=1;noEdgeStyle=1" edge="1" noEdgeStyle="1" value="GigabitEthernet0/1 -> GigabitEthernet0/0">
          <mxGeometry relative="1" as="geometry"/>
        </mxCell>
        <mxCell id="edge_24" parent="root_1" source="node_9" target="node_11" style="edgeStyle=orthogonalEdgeStyle;rounded=0;orthogonalLoop=1;jettySize=auto;html=1;noEdgeStyle=1" edge="1" noEdgeStyle="1" value="GigabitEthernet0/3 -> GigabitEthernet0/0">
          <mxGeometry relative="1" as="geometry"/>
        </mxCell>
      </root>
    </mxGraphModel>
  </diagram>
</mxfile>